<svg xmlns="http://www.w3.org/2000/svg" version="1.1" xmlns:xlink="http://www.w3.org/1999/xlink" xmlns:svgjs="http://svgjs.com/svgjs" width="118" height="87"><svg width="118" height="87" viewBox="0 0 118 87" fill="none" xmlns="http://www.w3.org/2000/svg">
<ellipse cx="58.9122" cy="43.1448" rx="52.7781" ry="30.1366" transform="rotate(15.5 58.9122 43.1448)" fill="#0E0E0E"></ellipse>
<path d="M36.1318 57.4574C32.7985 57.4574 30.2818 56.8908 28.5818 55.7574C26.8818 54.5908 26.0318 52.4908 26.0318 49.4574C26.6985 32.7908 27.7652 24.8408 29.2318 25.6074C29.9652 25.6408 30.3318 26.7741 30.3318 29.0074C30.3318 30.3741 30.0985 33.2574 29.6318 37.6574C29.0318 42.7241 28.7318 46.4408 28.7318 48.8074L28.7818 50.2574C28.7818 50.9908 28.9985 51.7241 29.4318 52.4574C29.8985 53.1908 30.4818 53.5908 31.1818 53.6574L40.9818 54.5074C41.3485 54.5408 41.5318 54.8908 41.5318 55.5574C41.5318 56.1574 41.3818 56.5741 41.0818 56.8074C40.8152 57.0408 40.3318 57.2241 39.6318 57.3574L36.1318 57.4574ZM54.3377 57.4074C54.1377 57.4741 53.971 57.5074 53.8377 57.5074C53.671 57.5074 53.4877 57.4574 53.2877 57.3574C52.421 56.0241 51.7377 54.8908 51.2377 53.9574C50.771 52.9908 49.9877 51.3241 48.8877 48.9574C47.6877 46.1574 46.1544 42.2074 44.2877 37.1074C42.421 32.0074 41.4877 28.8908 41.4877 27.7574C41.4877 27.4574 41.5544 27.2408 41.6877 27.1074C41.821 26.9408 41.9877 26.8574 42.1877 26.8574C42.3544 26.8574 42.4877 26.8908 42.5877 26.9574C42.9877 27.1908 43.621 28.3574 44.4877 30.4574C45.3877 32.5241 46.621 35.6241 48.1877 39.7574C50.7544 46.5574 52.7877 51.5908 54.2877 54.8574C55.021 54.1574 56.0544 52.0908 57.3877 48.6574C58.721 45.1908 59.9377 41.3574 61.0377 37.1574C62.171 32.9574 62.8377 29.3908 63.0377 26.4574C64.5044 26.3574 65.2377 26.9408 65.2377 28.2074C65.2377 30.3408 64.6377 33.6741 63.4377 38.2074C62.2377 42.7408 60.7877 46.9241 59.0877 50.7574C57.3877 54.5574 55.8044 56.7741 54.3377 57.4074ZM68.174 60.4074C67.8074 60.4074 67.5574 60.2741 67.424 60.0074C67.324 59.7741 67.274 59.3908 67.274 58.8574C67.274 57.0574 67.9574 55.0741 69.324 52.9074C70.724 50.7074 72.5407 48.2408 74.774 45.5074C75.374 44.8074 75.824 44.2408 76.124 43.8074L74.424 41.1074C73.0574 38.9741 72.0407 37.2574 71.374 35.9574C70.7407 34.6574 70.424 33.4241 70.424 32.2574C70.424 31.8241 70.4907 31.5241 70.624 31.3574C70.7907 31.1908 71.074 31.1074 71.474 31.1074C71.8074 31.1074 72.324 31.6574 73.024 32.7574C73.724 33.8241 74.674 35.3908 75.874 37.4574C76.1074 37.8908 76.4907 38.5741 77.024 39.5074C77.5907 40.4074 77.974 40.9408 78.174 41.1074C79.7407 39.6741 81.0407 38.5741 82.074 37.8074C83.1074 37.0408 84.674 35.9908 86.774 34.6574C87.6074 34.1574 88.3907 33.7241 89.124 33.3574C89.8907 32.9574 90.6074 32.7574 91.274 32.7574C92.0074 32.7574 92.4407 33.1074 92.574 33.8074C90.3407 35.2074 88.024 36.8741 85.624 38.8074C83.224 40.7408 81.324 42.5908 79.924 44.3574C80.224 45.2241 80.774 46.2241 81.574 47.3574C82.374 48.4908 83.4074 49.8574 84.674 51.4574C85.9074 53.0574 86.7907 54.2574 87.324 55.0574C87.8574 55.8241 88.124 56.4241 88.124 56.8574C88.124 57.2241 87.874 57.4074 87.374 57.4074C87.1074 57.4074 86.774 57.3574 86.374 57.2574C85.4407 56.5241 84.5574 55.6408 83.724 54.6074C82.8907 53.5408 81.924 52.2074 80.824 50.6074C79.1574 48.3074 78.074 46.8741 77.574 46.3074C76.174 47.9408 74.5074 50.1908 72.574 53.0574L71.474 54.6574C71.1407 55.1574 70.674 56.0741 70.074 57.4074C69.6407 58.3741 69.2907 59.0908 69.024 59.5574C68.7574 60.0241 68.474 60.3074 68.174 60.4074Z" fill="white"></path>
</svg><style>@media (prefers-color-scheme: light) { :root { filter: none; } }
@media (prefers-color-scheme: dark) { :root { filter: invert(100%); } }
</style></svg>