<svg width="87" height="47" viewBox="0 0 87 47" fill="none" xmlns="http://www.w3.org/2000/svg">
<path d="M13.768 43.128C9.50133 43.128 6.28 42.4027 4.104 40.952C1.928 39.4587 0.84 36.7707 0.84 32.888C1.69333 11.5547 3.05867 1.37866 4.936 2.36C5.87467 2.40267 6.344 3.85333 6.344 6.712C6.344 8.46133 6.04533 12.152 5.448 17.784C4.68 24.2693 4.296 29.0267 4.296 32.056L4.36 33.912C4.36 34.8507 4.63733 35.7893 5.192 36.728C5.78933 37.6667 6.536 38.1787 7.432 38.264L19.976 39.352C20.4453 39.3947 20.68 39.8427 20.68 40.696C20.68 41.464 20.488 41.9973 20.104 42.296C19.7627 42.5947 19.144 42.8293 18.248 43L13.768 43.128ZM37.0715 43.064C36.8155 43.1493 36.6022 43.192 36.4315 43.192C36.2182 43.192 35.9835 43.128 35.7275 43C34.6182 41.2933 33.7435 39.8427 33.1035 38.648C32.5062 37.4107 31.5035 35.2773 30.0955 32.248C28.5595 28.664 26.5968 23.608 24.2075 17.08C21.8182 10.552 20.6235 6.56267 20.6235 5.112C20.6235 4.728 20.7088 4.45067 20.8795 4.28C21.0502 4.06667 21.2635 3.96 21.5195 3.96C21.7328 3.96 21.9035 4.00267 22.0315 4.088C22.5435 4.38667 23.3542 5.88 24.4635 8.568C25.6155 11.2133 27.1942 15.1813 29.1995 20.472C32.4848 29.176 35.0875 35.6187 37.0075 39.8C37.9462 38.904 39.2688 36.2587 40.9755 31.864C42.6822 27.4267 44.2395 22.52 45.6475 17.144C47.0982 11.768 47.9515 7.20266 48.2075 3.448C50.0848 3.32 51.0235 4.06666 51.0235 5.688C51.0235 8.41866 50.2555 12.6853 48.7195 18.488C47.1835 24.2907 45.3275 29.6453 43.1515 34.552C40.9755 39.416 38.9488 42.2533 37.0715 43.064ZM54.782 46.904C54.3127 46.904 53.9927 46.7333 53.822 46.392C53.694 46.0933 53.63 45.6027 53.63 44.92C53.63 42.616 54.5047 40.0773 56.254 37.304C58.046 34.488 60.3713 31.3307 63.23 27.832C63.998 26.936 64.574 26.2107 64.958 25.656L62.782 22.2C61.0327 19.4693 59.7313 17.272 58.878 15.608C58.0673 13.944 57.662 12.3653 57.662 10.872C57.662 10.3173 57.7473 9.93333 57.918 9.72C58.1313 9.50666 58.494 9.4 59.006 9.4C59.4327 9.4 60.094 10.104 60.99 11.512C61.886 12.8773 63.102 14.8827 64.638 17.528C64.9367 18.0827 65.4273 18.9573 66.11 20.152C66.8353 21.304 67.326 21.9867 67.582 22.2C69.5873 20.3653 71.2513 18.9573 72.574 17.976C73.8967 16.9947 75.902 15.6507 78.59 13.944C79.6567 13.304 80.6593 12.7493 81.598 12.28C82.5793 11.768 83.4967 11.512 84.35 11.512C85.2887 11.512 85.8433 11.96 86.014 12.856C83.1553 14.648 80.19 16.7813 77.118 19.256C74.046 21.7307 71.614 24.0987 69.822 26.36C70.206 27.4693 70.91 28.7493 71.934 30.2C72.958 31.6507 74.2807 33.4 75.902 35.448C77.4807 37.496 78.6113 39.032 79.294 40.056C79.9767 41.0373 80.318 41.8053 80.318 42.36C80.318 42.8293 79.998 43.064 79.358 43.064C79.0167 43.064 78.59 43 78.078 42.872C76.8833 41.9333 75.7527 40.8027 74.686 39.48C73.6193 38.1147 72.382 36.408 70.974 34.36C68.8407 31.416 67.454 29.5813 66.814 28.856C65.022 30.9467 62.8887 33.8267 60.414 37.496L59.006 39.544C58.5793 40.184 57.982 41.3573 57.214 43.064C56.6593 44.3013 56.2113 45.2187 55.87 45.816C55.5287 46.4133 55.166 46.776 54.782 46.904Z" fill="white"/>
</svg>
